<?xml version="1.0" encoding="UTF-8" standalone="no"?>
<!-- Created with Inkscape (http://www.inkscape.org/) -->

<svg
   xmlns:dc="http://purl.org/dc/elements/1.1/"
   xmlns:cc="http://creativecommons.org/ns#"
   xmlns:rdf="http://www.w3.org/1999/02/22-rdf-syntax-ns#"
   xmlns:svg="http://www.w3.org/2000/svg"
   xmlns="http://www.w3.org/2000/svg"
   xmlns:xlink="http://www.w3.org/1999/xlink"
   xmlns:sodipodi="http://sodipodi.sourceforge.net/DTD/sodipodi-0.dtd"
   xmlns:inkscape="http://www.inkscape.org/namespaces/inkscape"
   width="660"
   height="60"
   id="svg3832"
   version="1.1"
   inkscape:version="0.48.4 r9939"
   sodipodi:docname="ss_mouth.svg"
   inkscape:export-filename="/home/andreas/Development/GameDevelopment/panpoo/client/assets/2d/ss_mouth.png"
   inkscape:export-xdpi="90"
   inkscape:export-ydpi="90">
  <defs
     id="defs3834">
    <linearGradient
       inkscape:collect="always"
       xlink:href="#linearGradient3895"
       id="linearGradient4173"
       gradientUnits="userSpaceOnUse"
       gradientTransform="matrix(0.72620036,0,0,0.72619743,-98.036302,715.36005)"
       x1="216.41753"
       y1="417.82562"
       x2="216.41753"
       y2="407.32617" />
    <linearGradient
       id="linearGradient3895">
      <stop
         style="stop-color:#000000;stop-opacity:0;"
         offset="0"
         id="stop3897" />
      <stop
         style="stop-color:#000000;stop-opacity:0.11518325;"
         offset="1"
         id="stop3899" />
    </linearGradient>
    <linearGradient
       inkscape:collect="always"
       xlink:href="#linearGradient3895"
       id="linearGradient4227"
       gradientUnits="userSpaceOnUse"
       gradientTransform="matrix(0.72620036,0,0,0.72619743,-98.036302,715.36005)"
       x1="216.41753"
       y1="417.82562"
       x2="216.41753"
       y2="407.32617" />
    <linearGradient
       inkscape:collect="always"
       xlink:href="#linearGradient3895"
       id="linearGradient4235"
       gradientUnits="userSpaceOnUse"
       gradientTransform="matrix(0.72620036,0,0,0.72619743,-98.036302,715.36005)"
       x1="216.41753"
       y1="417.82562"
       x2="216.41753"
       y2="407.32617" />
    <linearGradient
       inkscape:collect="always"
       xlink:href="#linearGradient3895"
       id="linearGradient4243"
       gradientUnits="userSpaceOnUse"
       gradientTransform="matrix(0.72620036,0,0,0.72619743,-98.036302,715.36005)"
       x1="216.41753"
       y1="417.82562"
       x2="216.41753"
       y2="407.32617" />
    <linearGradient
       inkscape:collect="always"
       xlink:href="#linearGradient3895"
       id="linearGradient4251"
       gradientUnits="userSpaceOnUse"
       gradientTransform="matrix(0.72620036,0,0,0.72619743,-98.036302,715.36005)"
       x1="216.41753"
       y1="417.82562"
       x2="216.41753"
       y2="407.32617" />
    <linearGradient
       inkscape:collect="always"
       xlink:href="#linearGradient3895"
       id="linearGradient4259"
       gradientUnits="userSpaceOnUse"
       gradientTransform="matrix(0.72620036,0,0,0.72619743,-98.036302,715.36005)"
       x1="216.41753"
       y1="417.82562"
       x2="216.41753"
       y2="407.32617" />
  </defs>
  <sodipodi:namedview
     id="base"
     pagecolor="#ffffff"
     bordercolor="#666666"
     borderopacity="1.0"
     inkscape:pageopacity="0.0"
     inkscape:pageshadow="2"
     inkscape:zoom="1"
     inkscape:cx="259.94585"
     inkscape:cy="42.515919"
     inkscape:document-units="px"
     inkscape:current-layer="layer1"
     showgrid="false"
     inkscape:showpageshadow="false"
     borderlayer="true"
     showguides="true"
     inkscape:guide-bbox="true"
     inkscape:window-width="795"
     inkscape:window-height="595"
     inkscape:window-x="586"
     inkscape:window-y="264"
     inkscape:window-maximized="0">
    <sodipodi:guide
       orientation="1,0"
       position="109.99614,1001.8504"
       id="guide3859" />
    <sodipodi:guide
       orientation="1,0"
       position="220,1027.1875"
       id="guide3861" />
    <sodipodi:guide
       orientation="1,0"
       position="330.00027,1029.2705"
       id="guide3863" />
    <sodipodi:guide
       orientation="1,0"
       position="440.02232,1059.1964"
       id="guide3865" />
    <sodipodi:guide
       orientation="1,0"
       position="550,988.9509"
       id="guide3867" />
  </sodipodi:namedview>
  <metadata
     id="metadata3837">
    <rdf:RDF>
      <cc:Work
         rdf:about="">
        <dc:format>image/svg+xml</dc:format>
        <dc:type
           rdf:resource="http://purl.org/dc/dcmitype/StillImage" />
        <dc:title></dc:title>
      </cc:Work>
    </rdf:RDF>
  </metadata>
  <g
     inkscape:label="Ebene 1"
     inkscape:groupmode="layer"
     id="layer1"
     transform="translate(0,-992.3622)">
    <g
       id="g4215">
      <path
         sodipodi:nodetypes="ssssssss"
         inkscape:connector-curvature="0"
         id="path3842"
         d="m 8.0094805,1012.6377 c 5.0893405,8.9472 12.7010105,17.5613 33.3775735,23.3409 7.819081,2.1856 16.427225,2.8261 24.274607,0.778 12.173978,-3.1772 24.916659,-6.705 35.633879,-22.874 2.07789,-3.135 0.13344,-7.3641 -4.823806,-7.6249 -3.003352,-0.1579 -27.263749,2.1368 -40.924494,2.1785 -14.331597,0.044 -40.369501,-2.0013 -42.947371,-2.0228 -5.1709908,-0.043 -6.0803845,3.6048 -4.5903885,6.2243 z"
         style="fill:#ffffff;fill-opacity:1;stroke:#4e4e4e;stroke-width:0.72619891px;stroke-linecap:butt;stroke-linejoin:miter;stroke-opacity:1;display:inline" />
      <path
         inkscape:connector-curvature="0"
         id="path3873"
         d="m 98.08318,1018.1846 c 1.082885,-1.3494 2.17586,-2.7327 3.22253,-4.3118 2.07789,-3.135 0.12347,-7.3645 -4.833786,-7.6252 -3.003342,-0.158 -27.256109,2.1368 -40.916854,2.1786 -14.331587,0.044 -40.381411,-1.9982 -42.959281,-2.0198 -5.1709908,-0.043 -6.0741444,3.6214 -4.5841485,6.2409 1.0382242,1.8253 2.2252685,3.6249 3.5629245,5.4011 0.630232,0.1724 1.120834,0.3809 1.792807,0.5447 2.286439,0.5572 4.820589,1.0465 7.53433,1.4977 2.713741,0.4513 5.614452,0.8671 8.669014,1.2028 3.054573,0.3357 6.245165,0.6063 9.554079,0.817 3.308903,0.2107 6.735417,0.355 10.21219,0.4312 3.476774,0.076 7.017139,0.068 10.575293,0 3.558154,-0.068 7.135698,-0.2098 10.688762,-0.4312 3.641635,-0.2269 7.076789,-0.523 10.302972,-0.8851 3.226173,-0.362 6.248505,-0.7703 9.009416,-1.2481 2.760911,-0.4779 5.265801,-1.0142 7.51164,-1.5886 0.250411,-0.064 0.414451,-0.1391 0.658112,-0.2042 z"
         style="fill:url(#linearGradient4173);fill-opacity:1;stroke:none;display:inline" />
    </g>
    <g
       id="g4221"
       transform="translate(110,0)">
      <path
         style="fill:#ffffff;fill-opacity:1;stroke:#4e4e4e;stroke-width:0.63613498px;stroke-linecap:butt;stroke-linejoin:miter;stroke-opacity:1;display:inline"
         d="m 7.9650629,1011.1018 c 5.0941781,6.859 12.7130831,13.4627 33.4092981,17.8934 7.826513,1.6755 16.442839,2.1665 24.29768,0.5964 12.185549,-2.4356 24.940342,-5.1401 35.667749,-17.5354 2.07986,-2.4033 0.13357,-5.6454 -4.828392,-5.8453 -3.006206,-0.1211 -27.289662,1.638 -40.963392,1.67 -14.345219,0.034 -40.407871,-1.5342 -42.988191,-1.5507 -5.1759062,-0.033 -6.0861643,2.7635 -4.5947521,4.7716 z"
         id="path4223"
         inkscape:connector-curvature="0"
         sodipodi:nodetypes="ssssssss" />
      <path
         style="fill:url(#linearGradient4227);fill-opacity:1;stroke:none;display:inline"
         d="m 98.08318,1018.1846 c 1.082885,-1.3494 2.17586,-2.7327 3.22253,-4.3118 2.07789,-3.135 0.12347,-7.3645 -4.833786,-7.6252 -3.003342,-0.158 -27.256109,2.1368 -40.916854,2.1786 -14.331587,0.044 -40.381411,-1.9982 -42.959281,-2.0198 -5.1709908,-0.043 -6.0741444,3.6214 -4.5841485,6.2409 1.0382242,1.8253 2.2252685,3.6249 3.5629245,5.4011 0.630232,0.1724 1.120834,0.3809 1.792807,0.5447 2.286439,0.5572 4.820589,1.0465 7.53433,1.4977 2.713741,0.4513 5.614452,0.8671 8.669014,1.2028 3.054573,0.3357 6.245165,0.6063 9.554079,0.817 3.308903,0.2107 6.735417,0.355 10.21219,0.4312 3.476774,0.076 7.017139,0.068 10.575293,0 3.558154,-0.068 7.135698,-0.2098 10.688762,-0.4312 3.641635,-0.2269 7.076789,-0.523 10.302972,-0.8851 3.226173,-0.362 6.248505,-0.7703 9.009416,-1.2481 2.760911,-0.4779 5.265801,-1.0142 7.51164,-1.5886 0.250411,-0.064 0.414451,-0.1391 0.658112,-0.2042 z"
         id="path4225"
         inkscape:connector-curvature="0" />
    </g>
    <g
       transform="matrix(1,0,0,0.56890488,220,433.63289)"
       id="g4229">
      <path
         sodipodi:nodetypes="ssssssss"
         inkscape:connector-curvature="0"
         id="path4231"
         d="m 8.0094805,1012.6377 c 5.0893405,8.9472 17.4739815,11.0359 38.1505445,16.8155 7.819081,2.1856 16.427225,2.8261 24.274607,0.778 12.173978,-3.1772 20.143688,-0.1796 30.860908,-16.3486 2.07789,-3.135 0.13344,-7.3641 -4.823806,-7.6249 -3.003352,-0.1579 -27.263749,2.1368 -40.924494,2.1785 -14.331597,0.044 -40.369501,-2.0013 -42.947371,-2.0228 -5.1709908,-0.043 -6.0803845,3.6048 -4.5903885,6.2243 z"
         style="fill:#ffffff;fill-opacity:1;stroke:#4e4e4e;stroke-width:0.72619891px;stroke-linecap:butt;stroke-linejoin:miter;stroke-opacity:1;display:inline" />
      <path
         inkscape:connector-curvature="0"
         id="path4233"
         d="m 98.08318,1018.1846 c 1.082885,-1.3494 2.17586,-2.7327 3.22253,-4.3118 2.07789,-3.135 0.12347,-7.3645 -4.833786,-7.6252 -3.003342,-0.158 -27.256109,2.1368 -40.916854,2.1786 -14.331587,0.044 -40.381411,-1.9982 -42.959281,-2.0198 -5.1709908,-0.043 -6.0741444,3.6214 -4.5841485,6.2409 1.0382242,1.8253 2.2252685,3.6249 3.5629245,5.4011 0.630232,0.1724 1.120834,0.3809 1.792807,0.5447 2.286439,0.5572 4.820589,1.0465 7.53433,1.4977 2.713741,0.4513 5.614452,0.8671 8.669014,1.2028 3.054573,0.3357 6.245165,0.6063 9.554079,0.817 3.308903,0.2107 6.735417,0.355 10.21219,0.4312 3.476774,0.076 7.017139,0.068 10.575293,0 3.558154,-0.068 7.135698,-0.2098 10.688762,-0.4312 3.641635,-0.2269 7.076789,-0.523 10.302972,-0.8851 3.226173,-0.362 6.248505,-0.7703 9.009416,-1.2481 2.760911,-0.4779 5.265801,-1.0142 7.51164,-1.5886 0.250411,-0.064 0.414451,-0.1391 0.658112,-0.2042 z"
         style="fill:url(#linearGradient4235);fill-opacity:1;stroke:none;display:inline" />
    </g>
    <g
       id="g4237"
       transform="matrix(1,0,0,0.59969739,330,402.65912)">
      <path
         style="fill:#ffffff;fill-opacity:1;stroke:#4e4e4e;stroke-width:0.72619891px;stroke-linecap:butt;stroke-linejoin:miter;stroke-opacity:1;display:inline"
         d="m 8.0094805,1012.6377 c 5.0893405,8.9472 6.8673795,13.7292 27.5439425,19.5088 7.819081,2.1856 16.427225,2.8261 24.274607,0.778 12.173978,-3.1772 30.75029,-2.8729 41.46751,-19.0419 2.07789,-3.135 0.13344,-7.3641 -4.823806,-7.6249 -3.003352,-0.1579 -27.263749,2.1368 -40.924494,2.1785 -14.331597,0.044 -40.369501,-2.0013 -42.947371,-2.0228 -5.1709908,-0.043 -6.0803845,3.6048 -4.5903885,6.2243 z"
         id="path4239"
         inkscape:connector-curvature="0"
         sodipodi:nodetypes="ssssssss" />
      <path
         style="fill:url(#linearGradient4243);fill-opacity:1;stroke:none;display:inline"
         d="m 98.08318,1018.1846 c 1.082885,-1.3494 2.17586,-2.7327 3.22253,-4.3118 2.07789,-3.135 0.12347,-7.3645 -4.833786,-7.6252 -3.003342,-0.158 -27.256109,2.1368 -40.916854,2.1786 -14.331587,0.044 -40.381411,-1.9982 -42.959281,-2.0198 -5.1709908,-0.043 -6.0741444,3.6214 -4.5841485,6.2409 1.0382242,1.8253 2.2252685,3.6249 3.5629245,5.4011 0.630232,0.1724 1.120834,0.3809 1.792807,0.5447 2.286439,0.5572 4.820589,1.0465 7.53433,1.4977 2.713741,0.4513 5.614452,0.8671 8.669014,1.2028 3.054573,0.3357 6.245165,0.6063 9.554079,0.817 3.308903,0.2107 6.735417,0.355 10.21219,0.4312 3.476774,0.076 7.017139,0.068 10.575293,0 3.558154,-0.068 7.135698,-0.2098 10.688762,-0.4312 3.641635,-0.2269 7.076789,-0.523 10.302972,-0.8851 3.226173,-0.362 6.248505,-0.7703 9.009416,-1.2481 2.760911,-0.4779 5.265801,-1.0142 7.51164,-1.5886 0.250411,-0.064 0.414451,-0.1391 0.658112,-0.2042 z"
         id="path4241"
         inkscape:connector-curvature="0" />
    </g>
    <g
       transform="matrix(1,0,0,0.64588615,440,356.19845)"
       id="g4245">
      <path
         sodipodi:nodetypes="ssssssss"
         inkscape:connector-curvature="0"
         id="path4247"
         d="m 8.0094805,1012.6377 c 5.0893405,8.9472 12.7010105,17.5613 33.3775735,23.3409 7.819081,2.1856 16.427225,2.8261 24.274607,0.778 12.173978,-3.1772 24.916659,-6.705 35.633879,-22.874 2.07789,-3.135 0.13344,-7.3641 -4.823806,-7.6249 -3.003352,-0.1579 -27.263749,2.1368 -40.924494,2.1785 -14.331597,0.044 -40.369501,-2.0013 -42.947371,-2.0228 -5.1709908,-0.043 -6.0803845,3.6048 -4.5903885,6.2243 z"
         style="fill:#ffffff;fill-opacity:1;stroke:#4e4e4e;stroke-width:0.72619891px;stroke-linecap:butt;stroke-linejoin:miter;stroke-opacity:1;display:inline" />
      <path
         inkscape:connector-curvature="0"
         id="path4249"
         d="m 98.08318,1018.1846 c 1.082885,-1.3494 2.17586,-2.7327 3.22253,-4.3118 2.07789,-3.135 0.12347,-7.3645 -4.833786,-7.6252 -3.003342,-0.158 -27.256109,2.1368 -40.916854,2.1786 -14.331587,0.044 -40.381411,-1.9982 -42.959281,-2.0198 -5.1709908,-0.043 -6.0741444,3.6214 -4.5841485,6.2409 1.0382242,1.8253 2.2252685,3.6249 3.5629245,5.4011 0.630232,0.1724 1.120834,0.3809 1.792807,0.5447 2.286439,0.5572 4.820589,1.0465 7.53433,1.4977 2.713741,0.4513 5.614452,0.8671 8.669014,1.2028 3.054573,0.3357 6.245165,0.6063 9.554079,0.817 3.308903,0.2107 6.735417,0.355 10.21219,0.4312 3.476774,0.076 7.017139,0.068 10.575293,0 3.558154,-0.068 7.135698,-0.2098 10.688762,-0.4312 3.641635,-0.2269 7.076789,-0.523 10.302972,-0.8851 3.226173,-0.362 6.248505,-0.7703 9.009416,-1.2481 2.760911,-0.4779 5.265801,-1.0142 7.51164,-1.5886 0.250411,-0.064 0.414451,-0.1391 0.658112,-0.2042 z"
         style="fill:url(#linearGradient4251);fill-opacity:1;stroke:none;display:inline" />
    </g>
    <g
       id="g4253"
       transform="translate(550,0)">
      <path
         style="fill:#ffffff;fill-opacity:1;stroke:#4e4e4e;stroke-width:0.72619891px;stroke-linecap:butt;stroke-linejoin:miter;stroke-opacity:1;display:inline"
         d="m 8.0094805,1012.6377 c 5.0893405,8.9472 12.7010105,17.5613 33.3775735,23.3409 7.819081,2.1856 16.427225,2.8261 24.274607,0.778 12.173978,-3.1772 24.916659,-6.705 35.633879,-22.874 2.07789,-3.135 0.13344,-7.3641 -4.823806,-7.6249 -3.003352,-0.1579 -27.263749,2.1368 -40.924494,2.1785 -14.331597,0.044 -40.369501,-2.0013 -42.947371,-2.0228 -5.1709908,-0.043 -6.0803845,3.6048 -4.5903885,6.2243 z"
         id="path4255"
         inkscape:connector-curvature="0"
         sodipodi:nodetypes="ssssssss" />
      <path
         style="fill:url(#linearGradient4259);fill-opacity:1;stroke:none;display:inline"
         d="m 98.08318,1018.1846 c 1.082885,-1.3494 2.17586,-2.7327 3.22253,-4.3118 2.07789,-3.135 0.12347,-7.3645 -4.833786,-7.6252 -3.003342,-0.158 -27.256109,2.1368 -40.916854,2.1786 -14.331587,0.044 -40.381411,-1.9982 -42.959281,-2.0198 -5.1709908,-0.043 -6.0741444,3.6214 -4.5841485,6.2409 1.0382242,1.8253 2.2252685,3.6249 3.5629245,5.4011 0.630232,0.1724 1.120834,0.3809 1.792807,0.5447 2.286439,0.5572 4.820589,1.0465 7.53433,1.4977 2.713741,0.4513 5.614452,0.8671 8.669014,1.2028 3.054573,0.3357 6.245165,0.6063 9.554079,0.817 3.308903,0.2107 6.735417,0.355 10.21219,0.4312 3.476774,0.076 7.017139,0.068 10.575293,0 3.558154,-0.068 7.135698,-0.2098 10.688762,-0.4312 3.641635,-0.2269 7.076789,-0.523 10.302972,-0.8851 3.226173,-0.362 6.248505,-0.7703 9.009416,-1.2481 2.760911,-0.4779 5.265801,-1.0142 7.51164,-1.5886 0.250411,-0.064 0.414451,-0.1391 0.658112,-0.2042 z"
         id="path4257"
         inkscape:connector-curvature="0" />
    </g>
  </g>
</svg>
